HIERARCHY
ROOT Hips
{
	OFFSET 0.000000 0.000000 0.000000
	CHANNELS 6 Xposition Yposition Zposition Zrotation Yrotation Xrotation 
	JOINT LHipJoint
	{
		OFFSET 0.000000 0.000000 0.000000
		CHANNELS 3 Zrotation Yrotation Xrotation
		JOINT LeftUpLeg
		{
			OFFSET 1.363060 -1.794630 0.839290
			CHANNELS 3 Zrotation Yrotation Xrotation
			JOINT LeftLeg
			{
				OFFSET 2.448110 -6.726130 0.000000
				CHANNELS 3 Zrotation Yrotation Xrotation
				JOINT LeftFoot
				{
					OFFSET 2.562200 -7.039590 0.000000
					CHANNELS 3 Zrotation Yrotation Xrotation
					JOINT LeftToeBase
					{
						OFFSET 0.157640 -0.433110 2.322550
						CHANNELS 3 Zrotation Yrotation Xrotation
						End Site
						{
							OFFSET 0.000000 0.000000 0.000000
						}
					}
				}
			}
		}
	}
	JOINT RHipJoint
	{
		OFFSET 0.000000 0.000000 0.000000
		CHANNELS 3 Zrotation Yrotation Xrotation
		JOINT RightUpLeg
		{
			OFFSET -1.305520 -1.794630 0.839290
			CHANNELS 3 Zrotation Yrotation Xrotation
			JOINT RightLeg
			{
				OFFSET -2.542530 -6.985550 0.000000
				CHANNELS 3 Zrotation Yrotation Xrotation
				JOINT RightFoot
				{
					OFFSET -2.568260 -7.056230 0.000000
					CHANNELS 3 Zrotation Yrotation Xrotation
					JOINT RightToeBase
					{
						OFFSET -0.164730 -0.452590 2.363150
						CHANNELS 3 Zrotation Yrotation Xrotation
						End Site
						{
							OFFSET 0.000000 0.000000 0.000000
						}
					}
				}
			}
		}
	}
	JOINT LowerBack
	{
		OFFSET 0.000000 0.000000 0.000000
		CHANNELS 3 Zrotation Yrotation Xrotation
		JOINT Spine
		{
			OFFSET 0.028270 2.035590 -0.193380
			CHANNELS 3 Zrotation Yrotation Xrotation
			JOINT Spine1
			{
				OFFSET 0.056720 2.048850 -0.042750
				CHANNELS 3 Zrotation Yrotation Xrotation
				JOINT Neck
				{
					OFFSET 0.000000 0.000000 0.000000
					CHANNELS 3 Zrotation Yrotation Xrotation
					JOINT Neck1
					{
						OFFSET -0.054170 1.746240 0.172020
						CHANNELS 3 Zrotation Yrotation Xrotation
						JOINT Head
						{
							OFFSET 0.104070 1.761360 -0.123970
							CHANNELS 3 Zrotation Yrotation Xrotation
							End Site
							{
								OFFSET 0.000000 0.000000 0.000000
							}
						}
					}
				}
				JOINT LeftShoulder
				{
					OFFSET 0.000000 0.000000 0.000000
					CHANNELS 3 Zrotation Yrotation Xrotation
					JOINT LeftArm
					{
						OFFSET 3.362410 1.200890 -0.311210
						CHANNELS 3 Zrotation Yrotation Xrotation
						JOINT LeftForeArm
						{
							OFFSET 4.983000 -0.000000 -0.000000
							CHANNELS 3 Zrotation Yrotation Xrotation
							JOINT LeftHand
							{
								OFFSET 3.483560 -0.000000 -0.000000
								CHANNELS 3 Zrotation Yrotation Xrotation
								JOINT LeftFingerBase
								{
									OFFSET 0.000000 0.000000 0.000000
									CHANNELS 3 Zrotation Yrotation Xrotation
									JOINT LeftHandIndex1
									{
										OFFSET 0.715260 -0.000000 -0.000000
										CHANNELS 3 Zrotation Yrotation Xrotation
										End Site
										{
											OFFSET 0.000000 0.000000 0.000000
										}
									}
								}
								JOINT LThumb
								{
									OFFSET 0.000000 0.000000 0.000000
									CHANNELS 3 Zrotation Yrotation Xrotation
									End Site
									{
										OFFSET 0.000000 0.000000 0.000000
									}
								}
							}
						}
					}
				}
				JOINT RightShoulder
				{
					OFFSET 0.000000 0.000000 0.000000
					CHANNELS 3 Zrotation Yrotation Xrotation
					JOINT RightArm
					{
						OFFSET -3.136600 1.374050 -0.404650
						CHANNELS 3 Zrotation Yrotation Xrotation
						JOINT RightForeArm
						{
							OFFSET -5.241900 -0.000000 -0.000000
							CHANNELS 3 Zrotation Yrotation Xrotation
							JOINT RightHand
							{
								OFFSET -3.444170 -0.000000 -0.000000
								CHANNELS 3 Zrotation Yrotation Xrotation
								JOINT RightFingerBase
								{
									OFFSET 0.000000 0.000000 0.000000
									CHANNELS 3 Zrotation Yrotation Xrotation
									JOINT RightHandIndex1
									{
										OFFSET -0.622530 -0.000000 -0.000000
										CHANNELS 3 Zrotation Yrotation Xrotation
										End Site
										{
											OFFSET 0.000000 0.000000 0.000000
										}
									}
								}
								JOINT RThumb
								{
									OFFSET 0.000000 0.000000 0.000000
									CHANNELS 3 Zrotation Yrotation Xrotation
									End Site
									{
										OFFSET 0.000000 0.000000 0.000000
									}
								}
							}
						}
					}
				}
			}
		}
	}
}
MOTION
Frames: 6
Frame Time: 0.008333
0.931812 17.941082 1.702616 1.246894 0.376384 0.608935 -1.434045 6.056181 5.685085 -21.746637 -6.881836 -4.668349 -0.316538 4.830196 21.077870 0.957782 -3.233105 -0.818003 0.005314 -0.449959 -1.236492 1.029678 -4.073770 2.796396 16.679484 10.099064 -32.644050 -3.112818 -10.927181 34.510053 3.022646 -11.691989 4.102474 -0.356811 3.784058 -10.476521 -2.906747 -1.241825 6.436241 3.442290 -1.694992 4.970846 3.223742 -0.913742 -8.802512 -5.098809 -3.612158 -16.631135 1.923143 -3.588179 21.454393 -0.388045 -1.497953 10.074786 -7.071562 2.649550 -1.081447 -75.443560 -3.180668 30.121829 15.378097 -25.392759 -3.593046 -0.308131 -0.693361 -7.148735 29.803231 21.108907 12.171808 -7.125000 0.000000 0.000000 1.491541 54.765706 0.344605 11.049856 -2.078000 -2.775837 74.519130 -6.251433 7.167106 -11.436181 23.857127 -2.911591 1.019823 -0.237207 2.038305 -16.890411 20.743964 -6.560063 7.125000 0.000000 0.000000 6.785056 -8.303876 5.775730
0.928959 17.935380 1.799269 1.355737 0.460370 0.687904 -1.464512 6.070524 5.728096 -21.818325 -6.725592 -4.399754 -0.368854 4.707309 20.758836 0.948215 -3.227713 -0.737615 0.014734 -0.729850 -2.006038 1.106827 -4.057944 2.748110 16.370770 10.300240 -32.572460 -2.767609 -10.510073 32.978226 3.139940 -12.095610 4.762618 -0.223598 2.963467 -8.182452 -3.012484 -1.290232 6.325761 3.416462 -1.765970 4.969270 3.265225 -0.950485 -8.732555 -5.067809 -3.586058 -16.443963 1.923490 -3.585762 21.232216 -0.392741 -1.499468 9.973059 -7.067868 2.630898 -1.082409 -75.313766 -3.290648 30.135863 15.537543 -25.616912 -3.656759 -0.294310 -0.725510 -7.490082 29.746071 22.961742 13.099896 -7.125000 0.000000 0.000000 0.987748 56.826456 0.268249 11.052849 -2.088496 -2.788681 74.546956 -6.381966 7.132316 -11.445585 23.875252 -2.917330 1.017626 -0.239470 1.961286 -16.772331 20.806681 -6.533341 7.125000 0.000000 0.000000 6.865913 -8.250869 5.852795
0.925575 17.929722 1.896674 1.387164 0.512399 0.754191 -1.496276 6.085269 5.769118 -21.808354 -6.558265 -4.177470 -0.423593 4.586728 20.432284 0.922804 -3.159696 -0.612412 0.028256 -1.069084 -2.938930 1.192327 -4.045164 2.699815 16.143040 10.548394 -32.451246 -2.433355 -10.080061 31.450549 3.272216 -12.547703 5.401179 -0.116531 2.152278 -5.928853 -3.067221 -1.337047 6.274267 3.443438 -1.829804 4.914972 3.304399 -0.983068 -8.730019 -5.074270 -3.532584 -16.154945 1.937525 -3.548747 20.998588 -0.382334 -1.486613 9.850466 -7.064291 2.612568 -1.081445 -75.208360 -3.291949 30.140592 15.718171 -25.867653 -3.731306 -0.280117 -0.753637 -7.800705 29.633299 24.596524 13.869626 -7.125000 0.000000 0.000000 0.408447 58.617727 0.128182 11.055614 -2.101669 -2.804475 74.536715 -6.584108 7.163802 -11.459413 23.906644 -2.927836 1.013584 -0.237735 1.817719 -16.580936 20.802323 -6.456769 7.125000 0.000000 0.000000 6.990788 -8.278582 5.957024
0.921656 17.927411 1.990731 1.436152 0.529529 0.779855 -1.519965 6.123116 5.831041 -21.781598 -6.483718 -3.679533 -0.478385 4.452977 20.084068 0.915226 -3.130842 -0.668606 0.017827 -0.745320 -2.048703 1.276288 -4.043457 2.649310 15.915251 10.810257 -32.272922 -2.113723 -9.638632 29.936997 3.407124 -12.992631 5.876846 -0.116105 2.186031 -6.020569 -3.146407 -1.374224 6.318067 3.465635 -1.884765 4.848726 3.356144 -1.011525 -8.797381 -5.124407 -3.495072 -16.015761 2.023289 -3.515120 20.980927 -0.341887 -1.465252 9.821307 -7.059683 2.606432 -1.078294 -75.091837 -3.287160 30.148501 15.847796 -26.046278 -3.789684 -0.273772 -0.756910 -8.039811 29.583933 24.785422 13.939246 -7.125000 0.000000 0.000000 0.302632 58.816130 0.102188 11.057867 -2.109564 -2.811412 74.556096 -6.751100 7.038009 -11.422262 23.857354 -2.912788 1.014591 -0.238813 1.860713 -16.561984 20.800507 -6.449411 7.125000 0.000000 0.000000 7.002038 -8.282523 5.966208
0.917599 17.925872 2.083938 1.489424 0.538425 0.796137 -1.541715 6.166484 5.897959 -21.750811 -6.431216 -3.116059 -0.533275 4.315899 19.730159 0.912048 -3.112075 -0.767356 0.001713 -0.264861 -0.727590 1.359878 -4.044411 2.598248 15.687000 11.075907 -32.081060 -1.797843 -9.194400 28.427115 3.542763 -13.436065 6.312338 -0.141944 2.427185 -6.688007 -3.231886 -1.409048 6.384668 3.487010 -1.937583 4.780141 3.411376 -1.038966 -8.881164 -5.185443 -3.461834 -15.915749 2.126086 -3.482385 21.016893 -0.294230 -1.441903 9.815697 -7.054899 2.603353 -1.074637 -74.973023 -3.282396 30.156320 15.964833 -26.207100 -3.844041 -0.269342 -0.754153 -8.260607 29.549807 24.623754 13.839038 -7.125000 0.000000 0.000000 0.311435 58.628292 0.103775 11.059985 -2.116077 -2.816066 74.582223 -6.907783 6.873129 -11.371944 23.787197 -2.891155 1.016902 -0.240526 1.948654 -16.587118 20.798342 -6.459438 7.125000 0.000000 0.000000 6.984172 -8.281441 5.950896
0.912607 17.918883 2.172301 1.544970 0.579685 0.876833 -1.566574 6.197617 5.953628 -21.726531 -6.312712 -2.743112 -0.599382 4.162096 19.319693 0.917744 -3.168533 -0.665157 0.003438 -0.366030 -1.005610 1.443768 -4.041481 2.544517 15.399391 11.401783 -31.934140 -1.508119 -8.746573 26.948367 3.690553 -13.912115 6.669360 -0.214343 2.943938 -8.125297 -3.363984 -1.442348 6.404587 3.553053 -1.992197 4.785798 3.523766 -1.064485 -8.890594 -5.284109 -3.480814 -16.180429 2.176663 -3.458661 21.204537 -0.258281 -1.428992 9.921651 -7.060044 2.612777 -1.074474 -74.908414 -3.476140 30.050001 16.056017 -26.331031 -3.886335 -0.266010 -0.752536 -8.358328 29.493822 24.563662 13.777658 -7.125000 0.000000 0.000000 0.262910 58.547435 0.087192 11.060798 -2.109298 -2.803242 74.548562 -6.831333 6.593300 -11.218597 23.550567 -2.819882 1.029351 -0.235906 1.985656 -16.900698 20.668612 -6.544246 7.125000 0.000000 0.000000 6.767700 -8.379938 5.750895
